<svg width="126" height="41" viewBox="0 0 126 41" fill="none" xmlns="http://www.w3.org/2000/svg">
<path d="M66.8401 26.7299L67.3303 26.828L66.8401 26.7299ZM125.764 22.7389L123.393 17.475L120.02 22.1608L125.764 22.7389ZM2.53185 15.9709C2.77544 15.8408 2.86748 15.5379 2.73741 15.2943C2.60735 15.0507 2.30444 14.9587 2.06084 15.0888L2.53185 15.9709ZM7.93672 12.0942C7.68838 12.215 7.58495 12.5142 7.7057 12.7625C7.82646 13.0109 8.12567 13.1143 8.37401 12.9935L7.93672 12.0942ZM12.6044 11.0055C12.8559 10.8914 12.9672 10.5951 12.8531 10.3436C12.7391 10.0921 12.4427 9.98078 12.1912 10.0949L12.6044 11.0055ZM18.2473 7.488C17.9915 7.59207 17.8685 7.88378 17.9725 8.13957C18.0766 8.39535 18.3683 8.51834 18.6241 8.41427L18.2473 7.488ZM22.9848 6.71781C23.2437 6.6218 23.3758 6.33408 23.2798 6.07517C23.1838 5.81625 22.8961 5.68418 22.6372 5.78018L22.9848 6.71781ZM28.8764 3.64057C28.6129 3.72321 28.4663 4.00381 28.5489 4.26729C28.6316 4.53078 28.9122 4.67738 29.1756 4.59473L28.8764 3.64057ZM33.6664 3.29167C33.9333 3.2208 34.0922 2.947 34.0213 2.6801C33.9505 2.41321 33.6767 2.25429 33.4098 2.32515L33.6664 3.29167ZM39.8572 0.871736C39.5855 0.921092 39.4053 1.18135 39.4546 1.45305C39.504 1.72475 39.7642 1.90499 40.0359 1.85563L39.8572 0.871736ZM44.6452 1.19229C44.9199 1.16403 45.1197 0.918442 45.0915 0.643748C45.0632 0.369056 44.8176 0.169282 44.5429 0.197542L44.6452 1.19229ZM51.1786 0.000798427C50.9029 -0.0146024 50.6669 0.196423 50.6515 0.472138C50.6361 0.74785 50.8471 0.983842 51.1228 0.999241L51.1786 0.000798427ZM55.6798 1.63219C55.9485 1.69573 56.2179 1.52939 56.2814 1.26066C56.345 0.99193 56.1786 0.722569 55.9099 0.659026L55.6798 1.63219ZM62.0642 3.35798C61.8402 3.19648 61.5277 3.24713 61.3662 3.47112C61.2046 3.69511 61.2553 4.00761 61.4793 4.16912L62.0642 3.35798ZM64.5981 7.39811C64.7515 7.62772 65.062 7.6895 65.2916 7.5361C65.5212 7.38269 65.583 7.0722 65.4296 6.84258L64.5981 7.39811ZM67.8741 13.1004C67.8231 12.829 67.5617 12.6504 67.2903 12.7014C67.0189 12.7524 66.8403 13.0138 66.8913 13.2852L67.8741 13.1004ZM67.2989 17.8408C67.3003 18.117 67.5253 18.3397 67.8015 18.3383C68.0776 18.3369 68.3003 18.1119 68.2989 17.8357L67.2989 17.8408ZM67.7557 24.4515C67.7985 24.1787 67.612 23.9228 67.3392 23.88C67.0664 23.8372 66.8106 24.0237 66.7678 24.2965L67.7557 24.4515ZM65.8261 29.1368C65.7671 29.4066 65.938 29.6731 66.2077 29.7321C66.4775 29.7911 66.744 29.6202 66.803 29.3505L65.8261 29.1368ZM65.093 36.0253C65.1745 35.7615 65.0268 35.4815 64.7629 35.4C64.4991 35.3185 64.2191 35.4663 64.1376 35.7301L65.093 36.0253ZM62.3531 40.1213C62.2053 40.3546 62.2746 40.6635 62.5079 40.8113C62.7412 40.959 63.0501 40.8897 63.1979 40.6565L62.3531 40.1213ZM60.4183 36.1907C60.3917 36.4656 60.5929 36.71 60.8678 36.7366C61.1426 36.7632 61.387 36.5619 61.4136 36.2871L60.4183 36.1907ZM62.2497 31.5367C62.3158 31.2686 62.1522 30.9976 61.8841 30.9315C61.616 30.8653 61.345 31.0289 61.2788 31.297L62.2497 31.5367ZM63.5079 24.7137C63.3976 24.9668 63.5134 25.2615 63.7666 25.3718C64.0197 25.4821 64.3144 25.3662 64.4247 25.1131L63.5079 24.7137ZM66.6411 20.8029C66.7835 20.5663 66.7072 20.2591 66.4706 20.1167C66.234 19.9742 65.9267 20.0506 65.7843 20.2872L66.6411 20.8029ZM69.9869 14.727C69.7965 14.9271 69.8044 15.2435 70.0045 15.4339C70.2045 15.6242 70.521 15.6164 70.7114 15.4163L69.9869 14.727ZM74.335 12.2435C74.5591 12.0822 74.6099 11.7697 74.4485 11.5456C74.2871 11.3215 73.9747 11.2707 73.7506 11.4321L74.335 12.2435ZM79.9468 8.18551C79.6864 8.27749 79.5499 8.56313 79.6419 8.8235C79.7339 9.08388 80.0195 9.22038 80.2799 9.12839L79.9468 8.18551ZM84.9175 7.98819C85.1907 7.94808 85.3797 7.69408 85.3396 7.42087C85.2995 7.14766 85.0455 6.95868 84.7723 6.99879L84.9175 7.98819ZM91.7783 6.81944C91.5032 6.79604 91.2612 7.00012 91.2378 7.27527C91.2144 7.55042 91.4184 7.79244 91.6936 7.81585L91.7783 6.81944ZM96.4704 8.54368C96.7403 8.60202 97.0064 8.4305 97.0647 8.16059C97.1231 7.89068 96.9516 7.62458 96.6817 7.56625L96.4704 8.54368ZM103.282 9.49866C103.022 9.40399 102.735 9.53754 102.64 9.79695C102.546 10.0564 102.679 10.3434 102.939 10.4381L103.282 9.49866ZM107.467 12.2975C107.719 12.4118 108.015 12.3006 108.129 12.0492C108.244 11.7978 108.133 11.5014 107.881 11.3872L107.467 12.2975ZM114.031 14.5153C113.79 14.3803 113.485 14.4661 113.35 14.707C113.215 14.9479 113.301 15.2526 113.542 15.3876L114.031 14.5153ZM117.747 17.8839C117.981 18.0304 118.289 17.9595 118.436 17.7254C118.582 17.4914 118.511 17.1828 118.277 17.0363L117.747 17.8839ZM123.983 20.8404C123.757 20.6811 123.445 20.7349 123.286 20.9604C123.127 21.186 123.18 21.498 123.406 21.6573L123.983 20.8404ZM0.483765 17.0833C1.15094 16.7146 1.83411 16.3434 2.53185 15.9709L2.06084 15.0888C1.35892 15.4635 0.67153 15.837 0.000121961 16.208L0.483765 17.0833ZM8.37401 12.9935C9.75219 12.3234 11.1651 11.6586 12.6044 11.0055L12.1912 10.0949C10.7436 10.7517 9.32267 11.4203 7.93672 12.0942L8.37401 12.9935ZM18.6241 8.41427C20.0665 7.82742 21.5226 7.25998 22.9848 6.71781L22.6372 5.78018C21.1646 6.32619 19.6988 6.89744 18.2473 7.488L18.6241 8.41427ZM29.1756 4.59473C30.6803 4.12279 32.1799 3.68634 33.6664 3.29167L33.4098 2.32515C31.9078 2.72392 30.394 3.16456 28.8764 3.64057L29.1756 4.59473ZM40.0359 1.85563C41.607 1.57025 43.1469 1.34643 44.6452 1.19229L44.5429 0.197542C43.0162 0.354605 41.4506 0.582285 39.8572 0.871736L40.0359 1.85563ZM51.1228 0.999241C52.7336 1.08921 54.2582 1.29606 55.6798 1.63219L55.9099 0.659026C54.4226 0.307355 52.8388 0.0935212 51.1786 0.000798427L51.1228 0.999241ZM61.4793 4.16912C62.6906 5.04251 63.7384 6.11127 64.5981 7.39811L65.4296 6.84258C64.5018 5.45386 63.3696 4.29929 62.0642 3.35798L61.4793 4.16912ZM66.8913 13.2852C67.1504 14.6629 67.2905 16.1782 67.2989 17.8408L68.2989 17.8357C68.2902 16.1204 68.1456 14.5443 67.8741 13.1004L66.8913 13.2852ZM66.7678 24.2965C66.6491 25.0529 66.51 25.8311 66.3498 26.6318L67.3303 26.828C67.4932 26.0143 67.6348 25.2223 67.7557 24.4515L66.7678 24.2965ZM66.3498 26.6318C66.1735 27.5125 65.9988 28.347 65.8261 29.1368L66.803 29.3505C66.9771 28.5545 67.153 27.7142 67.3303 26.828L66.3498 26.6318ZM64.1376 35.7301C63.4601 37.9229 62.8527 39.3327 62.3531 40.1213L63.1979 40.6565C63.7698 39.7537 64.4082 38.2417 65.093 36.0253L64.1376 35.7301ZM61.4136 36.2871C61.5482 34.8963 61.8192 33.2803 62.2497 31.5367L61.2788 31.297C60.8377 33.0838 60.5579 34.7479 60.4183 36.1907L61.4136 36.2871ZM64.4247 25.1131C65.0546 23.6673 65.7903 22.2164 66.6411 20.8029L65.7843 20.2872C64.9091 21.7413 64.1537 23.2314 63.5079 24.7137L64.4247 25.1131ZM70.7114 15.4163C71.8068 14.265 73.0121 13.1962 74.335 12.2435L73.7506 11.4321C72.3736 12.4237 71.1218 13.5342 69.9869 14.727L70.7114 15.4163ZM80.2799 9.12839C81.724 8.61822 83.2679 8.23035 84.9175 7.98819L84.7723 6.99879C83.0592 7.25028 81.4523 7.65364 79.9468 8.18551L80.2799 9.12839ZM91.6936 7.81585C93.2138 7.94514 94.8051 8.18378 96.4704 8.54368L96.6817 7.56625C94.977 7.19784 93.3434 6.95255 91.7783 6.81944L91.6936 7.81585ZM102.939 10.4381C104.4 10.9713 105.909 11.5892 107.467 12.2975L107.881 11.3872C106.301 10.6688 104.768 10.0412 103.282 9.49866L102.939 10.4381ZM113.542 15.3876C114.91 16.1543 116.311 16.9853 117.747 17.8839L118.277 17.0363C116.829 16.1295 115.413 15.2902 114.031 14.5153L113.542 15.3876Z" fill="url(#paint0_linear_282_279)"/>
<defs>
<linearGradient id="paint0_linear_282_279" x1="1.72116" y1="16.3593" x2="82.1737" y2="50.1634" gradientUnits="userSpaceOnUse">
<stop stop-color="#8A737D"/>
<stop offset="1" stop-color="white"/>
</linearGradient>
</defs>
</svg>
