<svg width="196" height="166" viewBox="0 0 196 166" fill="none" xmlns="http://www.w3.org/2000/svg">
<path d="M12.6101 136.479C12.6101 139.594 10.101 142.227 7.10899 142.227H1.40766V142.074C0.630209 142.021 0 141.373 0 140.59V124.746C0 123.916 0.677327 123.262 1.48423 123.262V123.162H5.50107C8.58733 123.162 11.0021 125.5 11.0021 128.51C11.0021 129.741 10.5781 130.895 9.8713 131.826C11.5028 132.803 12.6101 134.535 12.6101 136.473V136.479ZM5.50107 126.13H2.96257V131.025H5.82501C7.05598 130.848 8.03369 129.794 8.03369 128.516C8.03369 127.161 6.95585 126.13 5.50107 126.13ZM9.6416 136.479C9.6416 135.147 8.36352 133.993 6.90285 133.993H2.96257V139.264H7.1031C8.43419 139.264 9.63571 137.933 9.63571 136.479H9.6416Z" fill="white"/>
<path d="M21.2445 134.223V139.194H28.4241C29.2546 139.194 29.9319 139.871 29.9319 140.702C29.9319 141.532 29.2546 142.18 28.4241 142.18H19.7367C18.9062 142.18 18.2524 141.526 18.2524 140.702V124.628C18.2524 123.798 18.9062 123.121 19.7367 123.121H28.4241C29.2546 123.121 29.9319 123.798 29.9319 124.628C29.9319 125.459 29.2546 126.136 28.4241 126.136H21.2445V131.231H28.4241C29.2546 131.231 29.9319 131.885 29.9319 132.739C29.9319 133.593 29.2546 134.217 28.4241 134.217H21.2445V134.223Z" fill="white"/>
<path d="M52.3839 142.103C51.6536 142.48 50.7524 142.18 50.3755 141.449L48.4142 137.533H39.8033C39.7267 137.533 39.6796 137.533 39.6266 137.509L37.8184 141.402C37.5652 141.956 37.0115 142.28 36.4638 142.28C36.24 142.28 36.0397 142.233 35.8395 142.127C35.0856 141.773 34.7616 140.896 35.1091 140.142L42.4419 124.298C42.6952 123.768 43.1958 123.444 43.773 123.421H43.7966C44.3738 123.421 44.8744 123.745 45.1512 124.251L53.0612 140.095C53.4382 140.849 53.1378 141.75 52.3839 142.103ZM46.9123 134.517L43.8496 128.392L41.0107 134.517H46.9123Z" fill="white"/>
<path d="M68.3807 142.18C63.1329 142.18 58.8628 137.886 58.8628 132.639C58.8628 127.391 63.1329 123.121 68.3807 123.121C70.7425 123.121 73.0042 123.975 74.7594 125.553C75.3896 126.107 75.4367 127.061 74.8595 127.685C74.3059 128.286 73.3517 128.339 72.7509 127.785C71.5435 126.707 69.9886 126.13 68.3807 126.13C64.7879 126.13 61.8784 129.046 61.8784 132.633C61.8784 136.22 64.7938 139.135 68.3807 139.135C70.0357 139.135 71.6201 138.534 72.8275 137.403C73.4283 136.826 74.3824 136.873 74.9596 137.48C75.5133 138.081 75.4897 139.035 74.883 139.612C73.0984 141.244 70.7896 142.174 68.3807 142.174V142.18Z" fill="white"/>
<path d="M90.5498 142.156C85.2784 142.156 81.0083 137.886 81.0083 132.615C81.0083 127.343 85.2784 123.097 90.5498 123.097C95.8212 123.097 100.068 127.367 100.068 132.638C100.068 137.91 95.7976 142.156 90.5498 142.156ZM90.5498 126.136C86.957 126.136 84.0474 129.052 84.0474 132.615C84.0474 136.178 86.9629 139.117 90.5498 139.117C94.1367 139.117 97.0286 136.202 97.0286 132.615C97.0286 129.028 94.1131 126.136 90.5498 126.136Z" fill="white"/>
<path d="M121.236 140.672L121.212 140.696V140.92C121.212 140.92 121.189 140.967 121.189 140.996C121.189 141.026 121.189 141.049 121.165 141.073V141.149L121.141 141.202L121.088 141.279C121.088 141.279 121.088 141.326 121.065 141.355C121.065 141.379 121.041 141.403 121.041 141.432L120.994 141.509C120.994 141.509 120.971 141.532 120.971 141.556C120.947 141.579 120.923 141.579 120.923 141.609C120.9 141.632 120.9 141.662 120.876 141.662C120.876 141.685 120.853 141.709 120.823 141.738C120.8 141.738 120.8 141.762 120.776 141.791C120.753 141.791 120.753 141.815 120.729 141.838C120.706 141.838 120.676 141.862 120.676 141.891H120.653L120.629 141.915C120.582 141.968 120.505 141.992 120.429 142.039C120.352 142.062 120.305 142.115 120.229 142.139H120.205C120.128 142.162 120.052 142.192 119.981 142.192H119.928C119.881 142.215 119.804 142.215 119.728 142.215H119.551L119.528 142.192H119.404C119.404 142.192 119.38 142.168 119.351 142.168C119.304 142.168 119.274 142.145 119.227 142.145C119.227 142.145 119.204 142.121 119.18 142.121C119.157 142.121 119.133 142.098 119.104 142.068C119.08 142.068 119.051 142.068 119.027 142.045C119.003 142.045 118.98 142.021 118.95 141.992C118.927 141.992 118.897 141.992 118.897 141.968C118.85 141.944 118.821 141.944 118.797 141.915C118.797 141.891 118.774 141.891 118.744 141.868C118.721 141.844 118.668 141.815 118.644 141.768C118.621 141.768 118.621 141.744 118.621 141.744C118.573 141.721 118.544 141.668 118.52 141.644V141.62L108.926 129.164V140.69C108.926 141.544 108.225 142.221 107.395 142.221C106.564 142.221 105.863 141.544 105.863 140.69V124.57C105.863 124.57 105.887 124.546 105.887 124.516V124.44C105.887 124.44 105.887 124.387 105.91 124.363V124.287C105.91 124.287 105.934 124.234 105.934 124.21C105.934 124.187 105.958 124.157 105.958 124.157C105.958 124.134 105.981 124.11 105.981 124.081L106.028 124.004C106.028 124.004 106.028 123.951 106.052 123.928C106.052 123.904 106.075 123.875 106.105 123.851C106.105 123.851 106.105 123.827 106.128 123.798L106.175 123.751L106.199 123.698L106.276 123.621C106.276 123.621 106.299 123.598 106.323 123.568L106.376 123.521C106.376 123.521 106.399 123.498 106.423 123.468H106.446L106.47 123.445C106.493 123.421 106.523 123.392 106.546 123.392C106.57 123.368 106.594 123.368 106.594 123.339C106.617 123.339 106.641 123.315 106.67 123.315C106.694 123.291 106.717 123.291 106.747 123.291L106.823 123.244C106.823 123.244 106.847 123.244 106.87 123.221C106.894 123.221 106.918 123.221 106.947 123.197H107.024C107.024 123.197 107.071 123.174 107.1 123.174H107.177C107.177 123.174 107.224 123.15 107.253 123.15H107.554C107.554 123.15 107.601 123.174 107.63 123.174H107.707L107.754 123.197L107.854 123.221C107.854 123.221 107.878 123.244 107.901 123.244C107.925 123.244 107.948 123.268 107.978 123.268C108.001 123.268 108.025 123.291 108.054 123.291L108.101 123.344C108.101 123.344 108.154 123.368 108.178 123.368C108.202 123.392 108.225 123.392 108.225 123.415C108.249 123.415 108.278 123.439 108.302 123.468C108.325 123.468 108.325 123.492 108.349 123.492L108.402 123.545L108.449 123.598L108.496 123.645C108.496 123.645 108.549 123.698 108.549 123.721C108.549 123.721 108.557 123.729 108.573 123.745L118.161 136.202V124.676C118.161 123.821 118.839 123.144 119.693 123.144C120.547 123.144 121.224 123.821 121.224 124.676V140.672H121.236Z" fill="white"/>
<path d="M146.974 142.156C141.702 142.156 137.432 137.886 137.432 132.615C137.432 127.343 141.702 123.097 146.974 123.097C152.245 123.097 156.492 127.367 156.492 132.638C156.492 137.91 152.222 142.156 146.974 142.156ZM146.974 126.136C143.381 126.136 140.472 129.052 140.472 132.615C140.472 136.178 143.387 139.117 146.974 139.117C150.561 139.117 153.453 136.202 153.453 132.615C153.453 129.028 150.537 126.136 146.974 126.136Z" fill="white"/>
<path d="M177.66 140.672L177.636 140.696V140.92C177.636 140.92 177.613 140.967 177.613 140.996C177.613 141.026 177.613 141.049 177.589 141.073V141.149L177.566 141.202L177.513 141.279C177.513 141.279 177.513 141.326 177.489 141.355C177.489 141.379 177.466 141.403 177.466 141.432L177.418 141.509C177.418 141.509 177.395 141.532 177.395 141.556C177.371 141.579 177.348 141.579 177.348 141.609C177.324 141.632 177.324 141.662 177.301 141.662C177.301 141.685 177.277 141.709 177.248 141.738C177.224 141.738 177.224 141.762 177.201 141.791C177.177 141.791 177.177 141.815 177.153 141.838C177.13 141.838 177.1 141.862 177.1 141.891H177.077L177.053 141.915C177.006 141.968 176.93 141.992 176.853 142.039C176.776 142.062 176.729 142.115 176.653 142.139H176.629C176.553 142.162 176.476 142.192 176.405 142.192H176.352C176.305 142.215 176.229 142.215 176.152 142.215H175.975L175.952 142.192H175.828C175.828 142.192 175.805 142.168 175.775 142.168C175.728 142.168 175.699 142.145 175.652 142.145C175.652 142.145 175.628 142.121 175.604 142.121C175.581 142.121 175.557 142.098 175.528 142.068C175.504 142.068 175.475 142.068 175.451 142.045C175.428 142.045 175.404 142.021 175.375 141.992C175.351 141.992 175.322 141.992 175.322 141.968C175.275 141.944 175.245 141.944 175.222 141.915C175.222 141.891 175.198 141.891 175.169 141.868C175.145 141.844 175.092 141.815 175.068 141.768C175.045 141.768 175.045 141.744 175.045 141.744C174.998 141.721 174.968 141.668 174.945 141.644V141.62L165.35 129.164V140.69C165.35 141.544 164.649 142.221 163.819 142.221C162.988 142.221 162.288 141.544 162.288 140.69V124.57C162.288 124.57 162.311 124.546 162.311 124.516V124.44C162.311 124.44 162.311 124.387 162.335 124.363V124.287C162.335 124.287 162.358 124.234 162.358 124.21C162.358 124.187 162.382 124.157 162.382 124.157C162.382 124.134 162.405 124.11 162.405 124.081L162.453 124.004C162.453 124.004 162.452 123.951 162.476 123.928C162.476 123.904 162.5 123.875 162.529 123.851C162.529 123.851 162.529 123.827 162.553 123.798L162.6 123.751L162.623 123.698L162.7 123.621C162.7 123.621 162.723 123.598 162.747 123.568L162.8 123.521C162.8 123.521 162.824 123.498 162.847 123.468H162.871L162.894 123.445C162.918 123.421 162.947 123.392 162.971 123.392C162.994 123.368 163.018 123.368 163.018 123.339C163.041 123.339 163.065 123.315 163.094 123.315C163.118 123.291 163.142 123.291 163.171 123.291L163.248 123.244C163.248 123.244 163.271 123.244 163.295 123.221C163.318 123.221 163.342 123.221 163.371 123.197H163.448C163.448 123.197 163.495 123.174 163.524 123.174H163.601C163.601 123.174 163.648 123.15 163.678 123.15H163.978C163.978 123.15 164.025 123.174 164.055 123.174H164.131L164.178 123.197L164.278 123.221C164.278 123.221 164.302 123.244 164.325 123.244C164.349 123.244 164.373 123.268 164.402 123.268C164.426 123.268 164.449 123.291 164.479 123.291L164.526 123.344C164.526 123.344 164.579 123.368 164.602 123.368C164.626 123.392 164.649 123.392 164.649 123.415C164.673 123.415 164.702 123.439 164.726 123.468C164.75 123.468 164.75 123.492 164.773 123.492L164.826 123.545L164.873 123.598L164.92 123.645C164.92 123.645 164.973 123.698 164.973 123.721C164.973 123.721 164.981 123.729 164.997 123.745L174.586 136.202V124.676C174.586 123.821 175.263 123.144 176.117 123.144C176.971 123.144 177.648 123.821 177.648 124.676V140.672H177.66Z" fill="white"/>
<path d="M186.424 134.223V139.194H193.609C194.44 139.194 195.117 139.871 195.117 140.702C195.117 141.532 194.44 142.18 193.609 142.18H184.922C184.091 142.18 183.444 141.526 183.444 140.702V124.628C183.444 123.798 184.097 123.121 184.922 123.121H193.609C194.44 123.121 195.117 123.798 195.117 124.628C195.117 125.459 194.44 126.136 193.609 126.136H186.424V131.231H193.609C194.44 131.231 195.117 131.885 195.117 132.739C195.117 133.593 194.44 134.217 193.609 134.217H186.424V134.223Z" fill="white"/>
<path d="M58.957 165.121C55.2582 165.121 52.2544 162.1 52.2544 158.401C52.2544 154.702 55.2582 151.698 58.957 151.698C60.6179 151.698 62.2082 152.299 63.445 153.412C63.8867 153.801 63.9221 154.472 63.5157 154.914C63.127 155.338 62.4555 155.373 62.0315 154.985C61.1833 154.225 60.0878 153.819 58.957 153.819C56.4244 153.819 54.3747 155.868 54.3747 158.401C54.3747 160.933 56.4244 162.983 58.957 162.983C60.1232 162.983 61.2363 162.559 62.0845 161.764C62.5085 161.358 63.18 161.393 63.5864 161.817C63.9751 162.241 63.9574 162.912 63.5334 163.319C62.2788 164.467 60.6532 165.121 58.9511 165.121H58.957Z" fill="white"/>
<path d="M80.1365 165.068C79.6241 165.333 78.988 165.121 78.7229 164.608L77.3447 161.852H71.2782C71.2252 161.852 71.1899 161.852 71.1545 161.834L69.8823 164.573C69.7056 164.962 69.3169 165.191 68.9282 165.191C68.7692 165.191 68.6278 165.156 68.4864 165.085C67.9564 164.838 67.7267 164.22 67.974 163.69L73.1394 152.528C73.3161 152.157 73.6695 151.928 74.0759 151.91H74.0935C74.4999 151.91 74.8533 152.14 75.0477 152.493L80.6194 163.654C80.8845 164.184 80.6724 164.82 80.1424 165.068H80.1365ZM76.2787 159.726L74.123 155.408L72.1263 159.726H76.2845H76.2787Z" fill="white"/>
<path d="M93.6183 155.732C93.6183 157.817 91.7807 159.608 89.5838 159.608H86.792V164.049C86.792 164.632 86.3326 165.091 85.7495 165.091C85.1664 165.091 84.707 164.632 84.707 164.049V152.817C84.707 152.269 85.1488 151.81 85.6965 151.774V151.668H89.7251C91.8278 151.668 93.6183 153.524 93.6183 155.738V155.732ZM91.5156 155.732C91.5156 154.708 90.6675 153.771 89.731 153.771H86.7979V157.499H89.5897C90.6145 157.499 91.5156 156.669 91.5156 155.732Z" fill="white"/>
<path d="M98.931 165.103C98.3479 165.103 97.8708 164.626 97.8708 164.025V152.758C97.8708 152.157 98.3479 151.68 98.931 151.68C99.5141 151.68 100.009 152.157 100.009 152.758V164.025C100.009 164.626 99.5318 165.103 98.931 165.103Z" fill="white"/>
<path d="M114.58 152.793C114.58 153.394 114.103 153.871 113.52 153.871H110.481V164.072C110.481 164.673 110.004 165.15 109.421 165.15C108.838 165.15 108.343 164.673 108.343 164.072V153.871H105.321C104.738 153.871 104.261 153.394 104.261 152.793C104.261 152.193 104.738 151.733 105.321 151.733H113.526C114.109 151.733 114.586 152.21 114.586 152.793H114.58Z" fill="white"/>
<path d="M130.577 165.068C130.064 165.333 129.428 165.121 129.163 164.608L127.785 161.852H121.719C121.666 161.852 121.63 161.852 121.595 161.834L120.323 164.573C120.146 164.962 119.757 165.191 119.369 165.191C119.21 165.191 119.068 165.156 118.927 165.085C118.397 164.838 118.167 164.22 118.414 163.69L123.58 152.528C123.757 152.157 124.11 151.928 124.516 151.91H124.534C124.94 151.91 125.294 152.14 125.488 152.493L131.06 163.654C131.325 164.184 131.113 164.82 130.583 165.068H130.577ZM126.719 159.726L124.563 155.408L122.567 159.726H126.725H126.719Z" fill="white"/>
<path d="M136.19 165.174C135.925 165.174 135.66 165.068 135.465 164.873C135.271 164.679 135.147 164.414 135.147 164.131V152.793C135.147 152.21 135.624 151.751 136.19 151.751C136.755 151.751 137.232 152.21 137.232 152.793V163.071L142.433 163.018H142.451C143.016 163.018 143.475 163.477 143.493 164.043C143.493 164.626 143.034 165.103 142.451 165.103L136.207 165.174H136.19Z" fill="white"/>
<path d="M119.351 18.8179C118.986 18.4174 118.355 18.3879 117.949 18.759L111.594 24.5781C111.193 24.9492 111.164 25.5735 111.535 25.9799C111.723 26.186 111.989 26.3038 112.265 26.3038C112.513 26.3038 112.748 26.2096 112.937 26.0447L119.292 20.2256C119.692 19.8545 119.722 19.2302 119.351 18.8297V18.8179Z" fill="white"/>
<path d="M119.286 39.2966L112.931 33.4775C112.53 33.1065 111.9 33.1359 111.529 33.5423C111.164 33.9428 111.188 34.573 111.594 34.9382L117.949 40.7573C118.132 40.9222 118.367 41.0164 118.62 41.0164C118.897 41.0164 119.162 40.8987 119.351 40.6925C119.716 40.292 119.692 39.6618 119.286 39.2966Z" fill="white"/>
<path d="M124.787 28.972H115.658C115.11 28.972 114.668 29.4138 114.668 29.9615C114.668 30.5093 115.11 30.951 115.658 30.951H124.787C125.335 30.951 125.777 30.5093 125.777 29.9615C125.777 29.4138 125.335 28.972 124.787 28.972Z" fill="white"/>
<path d="M97.5588 0C77.4157 0 61.0244 16.3913 61.0244 36.5344C61.0244 52.0776 70.8839 65.9481 85.5554 71.0487C85.8028 71.137 86.0737 71.1193 86.3093 71.0074C86.5508 70.8896 86.7275 70.6894 86.8158 70.442C86.9042 70.1946 86.8865 69.9237 86.7746 69.6822C86.6627 69.4466 86.4566 69.264 86.2092 69.1757C72.3328 64.352 63.0093 51.2295 63.0093 36.5285C63.0093 17.475 78.5112 1.97308 97.5647 1.97308C116.618 1.97308 132.12 17.475 132.12 36.5285C132.12 51.306 122.732 64.4462 108.761 69.2287C108.243 69.4054 107.972 69.9708 108.143 70.4891C108.278 70.8896 108.655 71.1606 109.079 71.1606C109.191 71.1606 109.297 71.1429 109.397 71.1076C124.169 66.0482 134.093 52.1542 134.093 36.5344C134.093 16.3913 117.702 0 97.5588 0Z" fill="white"/>
<path d="M120.658 106.871H74.4587C73.911 106.871 73.4692 107.313 73.4692 107.86C73.4692 108.408 73.911 108.85 74.4587 108.85H120.658C121.206 108.85 121.648 108.408 121.648 107.86C121.648 107.313 121.206 106.871 120.658 106.871Z" fill="white"/>
<path d="M125.029 102.03H91.3271C90.7794 102.03 90.3376 102.471 90.3376 103.019C90.3376 103.567 90.7794 104.009 91.3271 104.009H125.029C125.576 104.009 126.018 103.567 126.018 103.019C126.018 102.471 125.576 102.03 125.029 102.03Z" fill="white"/>
<path d="M82.9047 102.029H58.0027C57.4549 102.029 57.0132 102.471 57.0132 103.019C57.0132 103.566 57.4549 104.008 58.0027 104.008H82.9047C83.4525 104.008 83.8942 103.566 83.8942 103.019C83.8942 102.471 83.4525 102.029 82.9047 102.029Z" fill="white"/>
<path d="M137.103 102.029H130.27C129.723 102.029 129.281 102.471 129.281 103.019C129.281 103.567 129.723 104.008 130.27 104.008H137.103C137.65 104.008 138.092 103.567 138.092 103.019C138.092 102.471 137.65 102.029 137.103 102.029Z" fill="white"/>
<path d="M87.4872 47.3187C86.9336 47.2775 86.4683 47.6957 86.4329 48.2375L82.8578 98.1006C82.8166 98.6424 83.2289 99.1195 83.7707 99.1549H83.8473C84.3656 99.1549 84.7956 98.7543 84.8309 98.2419L88.406 48.3789C88.4473 47.837 88.035 47.36 87.4872 47.3187Z" fill="white"/>
<path d="M101.081 55.6997C101.063 55.4347 100.939 55.1932 100.739 55.0224C100.539 54.8457 100.274 54.7632 100.02 54.7809C99.7554 54.7986 99.5139 54.9223 99.3431 55.1225C99.1723 55.3228 99.084 55.576 99.1075 55.8411L102.194 98.2417C102.229 98.76 102.665 99.1605 103.177 99.1605H103.248C103.513 99.137 103.755 99.0192 103.925 98.8189C104.096 98.6187 104.185 98.3654 104.161 98.1004L101.075 55.6997H101.081Z" fill="white"/>
<path d="M109.515 63.6158C109.162 58.6625 104.997 54.7811 100.032 54.7811H94.278L96.2688 49.2977H107.719C108.266 49.2977 108.708 48.856 108.708 48.3082C108.708 47.7605 108.266 47.3187 107.719 47.3187H94.8847L91.4509 56.7601H100.026C103.961 56.7601 107.259 59.8345 107.536 63.7689L110.281 98.2537C110.322 98.7661 110.758 99.1666 111.264 99.1666H111.347C111.889 99.1195 112.295 98.6424 112.254 98.1006L109.509 63.6217L109.515 63.6158Z" fill="white"/>
<path d="M101.74 17.3157C100.68 17.0801 99.8556 16.7032 99.2784 16.1907C98.8131 15.7785 98.5481 15.1541 98.5481 14.4827V11.7322C98.5481 11.1844 98.1063 10.7427 97.5586 10.7427C97.0108 10.7427 96.5691 11.1844 96.5691 11.7322V14.4827C96.5691 15.7196 97.0756 16.8857 97.965 17.675C98.7954 18.4112 99.9263 18.9472 101.316 19.2534C104.055 19.8601 103.89 21.9922 103.861 22.2337C103.79 22.7755 104.173 23.2703 104.721 23.341C104.762 23.341 104.803 23.3468 104.844 23.3468C105.339 23.3468 105.763 22.9758 105.828 22.481C106.01 21.0498 105.392 18.1285 101.746 17.3157H101.74Z" fill="white"/>
<path d="M97.5585 10.7369C97.0108 10.7369 96.569 11.1787 96.569 11.7264V14.477C96.569 15.1543 96.304 15.7727 95.8387 16.185C95.2615 16.6974 94.431 17.0744 93.3767 17.31C89.731 18.1169 89.1125 21.0382 89.2951 22.4753C89.3599 22.9642 89.7781 23.3352 90.2728 23.3352C90.3141 23.3352 90.3494 23.3352 90.3906 23.3293C90.9266 23.2645 91.3153 22.7698 91.2564 22.2338C91.227 21.9923 91.0621 19.8543 93.8008 19.2477C95.1908 18.9414 96.3158 18.4055 97.1521 17.6692C98.0356 16.88 98.548 15.7197 98.548 14.4829V11.7323C98.548 11.1846 98.1063 10.7428 97.5585 10.7428V10.7369Z" fill="white"/>
<path d="M108.048 21.757H87.0688C86.5211 21.757 86.0793 22.1987 86.0793 22.7464C86.0793 23.2942 86.5211 23.7359 87.0688 23.7359H108.048C108.596 23.7359 109.038 23.2942 109.038 22.7464C109.038 22.1987 108.596 21.757 108.048 21.757Z" fill="white"/>
<path d="M106.676 28.0119L88.4706 27.8057C88.2114 27.7998 87.9582 27.8823 87.7697 28.059C87.5753 28.2416 87.4634 28.5066 87.4575 28.7834C87.4575 29.3312 87.8875 29.7788 88.4352 29.7847L106.652 29.9908H106.658C107.2 29.9908 107.642 29.5491 107.648 29.0131C107.648 28.4654 107.218 28.0177 106.67 28.0119H106.676Z" fill="white"/>
<path d="M111.995 39.4381H83.1169C82.5692 39.4381 82.1274 39.8798 82.1274 40.4276C82.1274 40.9753 82.5692 41.4171 83.1169 41.4171H111.995C112.542 41.4171 112.984 40.9753 112.984 40.4276C112.984 39.8798 112.542 39.4381 111.995 39.4381Z" fill="white"/>
<path d="M108.973 43.1663H86.1443C85.5965 43.1663 85.1548 43.608 85.1548 44.1557C85.1548 44.7035 85.5965 45.1452 86.1443 45.1452H108.973C109.521 45.1452 109.963 44.7035 109.963 44.1557C109.963 43.608 109.521 43.1663 108.973 43.1663Z" fill="white"/>
<path d="M106.664 33.8605H88.447C87.8993 33.8605 87.4575 34.3022 87.4575 34.85C87.4575 35.3977 87.8993 35.8394 88.447 35.8394H106.664C107.212 35.8394 107.654 35.3977 107.654 34.85C107.654 34.3022 107.212 33.8605 106.664 33.8605Z" fill="white"/>
<path d="M87.4575 21.757V41.4171H107.654V21.757H87.4575ZM89.4365 39.4381V23.7359H105.675V39.4381H89.4365Z" fill="white"/>
<path d="M93.2886 33.8605C92.7408 33.8605 92.2991 34.3022 92.2991 34.85V40.4335C92.2991 40.9812 92.7408 41.423 93.2886 41.423C93.8363 41.423 94.278 40.9812 94.278 40.4335V34.85C94.278 34.3022 93.8363 33.8605 93.2886 33.8605Z" fill="white"/>
<path d="M97.7295 33.8605C97.1817 33.8605 96.74 34.3022 96.74 34.85V40.4335C96.74 40.9812 97.1817 41.423 97.7295 41.423C98.2772 41.423 98.719 40.9812 98.719 40.4335V34.85C98.719 34.3022 98.2772 33.8605 97.7295 33.8605Z" fill="white"/>
<path d="M102.17 33.8605C101.623 33.8605 101.181 34.3022 101.181 34.85V40.4335C101.181 40.9812 101.623 41.423 102.17 41.423C102.718 41.423 103.16 40.9812 103.16 40.4335V34.85C103.16 34.3022 102.718 33.8605 102.17 33.8605Z" fill="white"/>
<path d="M119.592 18.6C119.398 18.3821 119.115 18.2525 118.827 18.2407L115.852 18.1052C115.546 18.0994 115.252 18.1936 115.04 18.3938C114.833 18.5882 114.716 18.8591 114.698 19.1536C114.686 19.4481 114.786 19.7308 114.987 19.9488C115.187 20.1667 115.458 20.2962 115.752 20.308L117.619 20.3964L117.531 22.1574C117.513 22.4519 117.613 22.7346 117.814 22.9525C118.014 23.1705 118.285 23.3 118.597 23.3177H118.638C119.227 23.3177 119.71 22.8583 119.74 22.2693L119.887 19.401C119.899 19.1065 119.799 18.8238 119.604 18.6059L119.592 18.6Z" fill="white"/>
<path d="M83.1698 26.0153C82.999 26.0153 82.8282 25.9564 82.6927 25.8268L76.3376 20.0077C76.049 19.7426 76.0313 19.295 76.2905 19.0064C76.5555 18.7178 77.0031 18.7001 77.2917 18.9593L83.6468 24.7784C83.9354 25.0435 83.9531 25.4911 83.694 25.7797C83.5526 25.9328 83.3641 26.0094 83.1698 26.0094V26.0153Z" fill="white"/>
<path d="M83.1699 26.2921C82.9225 26.2921 82.6869 26.1978 82.5043 26.0329L76.1492 20.2138C75.7487 19.8427 75.7193 19.2184 76.0844 18.8179C76.4555 18.4174 77.0798 18.388 77.4862 18.7531L83.8413 24.5723C84.2418 24.9433 84.2713 25.5676 83.9061 25.9681C83.7176 26.1743 83.4526 26.2921 83.1758 26.2921H83.1699ZM76.8148 19.0535C76.697 19.0535 76.5851 19.1006 76.4967 19.1949C76.3377 19.3657 76.3495 19.6425 76.5262 19.8015L82.8813 25.6206C83.0521 25.7738 83.3348 25.762 83.4879 25.5912C83.6469 25.4145 83.6352 25.1436 83.4585 24.9845L77.1034 19.1654C77.0209 19.0889 76.9149 19.0535 76.8148 19.0535Z" fill="white"/>
<path d="M76.8148 40.7339C76.6204 40.7339 76.432 40.6573 76.2906 40.5042C76.0256 40.2156 76.0491 39.768 76.3377 39.5029L82.6928 33.6838C82.9814 33.4188 83.4291 33.4423 83.6941 33.7309C83.9591 34.0195 83.9356 34.4671 83.647 34.7322L77.2919 40.5513C77.1564 40.675 76.9856 40.7398 76.8148 40.7398V40.7339Z" fill="white"/>
<path d="M76.8147 41.0167C76.5378 41.0167 76.2728 40.8989 76.0843 40.6928C75.7133 40.2922 75.7427 39.662 76.1432 39.2969L82.4983 33.4777C82.8988 33.1126 83.529 33.1361 83.9001 33.5366C84.2653 33.9372 84.2417 34.5674 83.8412 34.9325L77.4861 40.7517C77.3035 40.9166 77.0679 41.0108 76.8205 41.0108L76.8147 41.0167ZM83.1697 33.784C83.0637 33.784 82.9636 33.8194 82.8812 33.8959L76.5261 39.715C76.3494 39.8741 76.3376 40.145 76.4966 40.3217C76.6497 40.4925 76.9325 40.5043 77.1033 40.3511L83.4584 34.532C83.635 34.373 83.6468 34.1021 83.4819 33.9254C83.3995 33.8311 83.2817 33.7899 83.1639 33.7899L83.1697 33.784Z" fill="white"/>
<path d="M79.7774 30.6741H70.6482C70.2595 30.6741 69.9414 30.356 69.9414 29.9673C69.9414 29.5785 70.2595 29.2605 70.6482 29.2605H79.7774C80.1661 29.2605 80.4841 29.5785 80.4841 29.9673C80.4841 30.356 80.1661 30.6741 79.7774 30.6741Z" fill="white"/>
<path d="M79.7774 30.951H70.6482C70.1004 30.951 69.6587 30.5093 69.6587 29.9615C69.6587 29.4138 70.1004 28.972 70.6482 28.972H79.7774C80.3251 28.972 80.7669 29.4138 80.7669 29.9615C80.7669 30.5093 80.3251 30.951 79.7774 30.951ZM70.6482 29.5316C70.4126 29.5316 70.2182 29.7259 70.2182 29.9615C70.2182 30.1971 70.4126 30.3915 70.6482 30.3915H79.7774C80.013 30.3915 80.2073 30.1971 80.2073 29.9615C80.2073 29.7259 80.013 29.5316 79.7774 29.5316H70.6482Z" fill="white"/>
<path d="M128.009 97.1818H98.6952V84.3597C98.6952 81.5385 96.3981 79.2473 93.5828 79.2473C90.7675 79.2473 88.4705 81.5443 88.4705 84.3597V97.1818H67.1023C66.5545 97.1818 66.1128 97.6235 66.1128 98.1712C66.1128 98.719 66.5545 99.1607 67.1023 99.1607H128.009C128.556 99.1607 128.998 98.719 128.998 98.1712C128.998 97.6235 128.556 97.1818 128.009 97.1818ZM90.4494 84.3597C90.4494 82.634 91.8571 81.2263 93.5828 81.2263C95.3085 81.2263 96.7162 82.634 96.7162 84.3597V97.1818H90.4436V84.3597H90.4494Z" fill="white"/>
</svg>
